<?xml version="1.0" standalone="no"?>
<!DOCTYPE svg PUBLIC "-//W3C//DTD SVG 20010904//EN"
 "http://www.w3.org/TR/2001/REC-SVG-20010904/DTD/svg10.dtd">
<svg version="1.0" xmlns="http://www.w3.org/2000/svg"
 width="1129.000000pt" height="509.000000pt" viewBox="0 0 1129.000000 509.000000"
 preserveAspectRatio="xMidYMid meet">
<metadata>
Created by potrace 1.16, written by Peter Selinger 2001-2019
</metadata>
<g transform="translate(0.000000,509.000000) scale(0.100000,-0.100000)"
fill="#000000" stroke="none">
<path d="M1204 4199 c-19 -21 -19 -59 -19 -1484 l0 -1463 24 -21 c13 -12 27
-21 31 -21 15 0 38 37 49 75 8 28 11 455 11 1431 0 1186 -2 1398 -15 1439 -20
68 -46 82 -81 44z"/>
<path d="M6800 3228 c-19 -32 -20 -48 -20 -628 0 -706 0 -704 89 -890 51 -107
193 -249 306 -306 128 -64 207 -84 339 -84 143 0 253 30 389 108 99 56 142 63
183 29 25 -22 33 -38 44 -99 19 -107 34 -138 64 -138 17 0 32 9 43 27 17 25
18 85 18 989 l0 963 -21 28 c-30 40 -50 40 -74 1 -19 -32 -20 -49 -20 -548 0
-540 -10 -720 -46 -805 -58 -141 -114 -226 -191 -295 -188 -166 -504 -184
-718 -43 -107 71 -203 190 -244 303 -32 86 -34 130 -40 735 -5 525 -8 625 -21
650 -22 43 -54 45 -80 3z"/>
<path d="M2795 3150 c-295 -31 -577 -235 -708 -510 -74 -156 -82 -194 -82
-400 0 -213 11 -261 95 -425 56 -109 61 -116 180 -235 178 -177 383 -260 640
-260 163 1 238 18 395 90 100 47 169 97 256 187 136 140 206 268 245 453 19
88 18 308 -2 385 -8 33 -19 74 -23 90 -12 48 -70 164 -113 230 -143 215 -395
369 -647 394 -112 12 -131 12 -236 1z m234 -121 c163 -20 318 -98 445 -224
111 -110 179 -227 223 -385 24 -85 21 -286 -5 -380 -74 -264 -275 -477 -535
-565 -115 -39 -322 -44 -448 -11 -198 52 -400 211 -497 391 -69 127 -92 223
-92 380 0 188 34 301 138 458 88 133 239 247 401 303 120 42 227 51 370 33z"/>
<path d="M5230 3140 c-307 -55 -592 -300 -692 -594 -44 -131 -50 -169 -50
-311 0 -140 0 -145 50 -320 8 -27 72 -150 106 -205 46 -70 184 -201 268 -254
85 -52 193 -97 296 -122 83 -20 295 -23 372 -5 184 43 322 114 439 225 72 69
98 115 81 146 -19 36 -55 24 -142 -46 -156 -126 -250 -174 -406 -205 -114 -23
-172 -24 -277 -4 -139 27 -220 60 -333 138 -153 105 -264 266 -319 466 -22 75
-22 295 0 372 41 149 105 261 210 368 86 88 164 143 257 181 125 51 193 63
347 58 121 -4 148 -9 218 -34 100 -37 193 -89 268 -151 93 -76 118 -93 142
-93 65 0 53 70 -24 148 -113 114 -277 202 -444 236 -81 17 -286 20 -367 6z"/>
<path d="M9375 3144 c-125 -29 -215 -74 -281 -140 -105 -105 -157 -273 -123
-399 47 -180 177 -286 454 -370 176 -54 233 -74 305 -110 144 -72 221 -178
228 -312 4 -66 1 -78 -32 -146 -51 -106 -107 -151 -251 -202 -37 -14 -82 -18
-170 -19 -180 -1 -252 26 -399 149 -77 64 -110 77 -134 53 -18 -18 -14 -47 12
-92 22 -37 114 -126 131 -126 4 0 20 -9 36 -21 65 -46 233 -89 349 -89 118 0
260 36 357 91 73 42 166 145 194 216 35 88 39 244 8 327 -30 82 -57 123 -120
180 -70 63 -203 126 -374 176 -232 68 -310 106 -387 186 -67 72 -82 109 -82
204 0 75 3 91 28 135 42 74 81 110 165 152 72 36 82 38 189 41 160 6 227 -14
351 -102 77 -54 127 -62 137 -22 16 64 -85 156 -235 213 -57 22 -85 26 -201
29 -74 2 -144 1 -155 -2z"/>
</g>
</svg>
